# xmcd CD database file
#
# Track frame offsets:
#	150
#	28235
#	59061
#	107211
#	145539
#	182520
#	206450
#	235746
#
# Disc length: 3589 seconds
#
# Revision: 0
# Processed by: cddbd v1.5.2PL0 Copyright (c) Steve Scherf et al.
# Submitted via: CDex 1.51
#
DISCID=6d0e0308
DTITLE=Daniel Levin Quartet - Blurry
DYEAR=2007
DGENRE=Jazz
TTITLE0=Law Years
TTITLE1=Improvisation II
TTITLE2=209 Willard Street
TTITLE3=Cannery Row
TTITLE4=Untitled
TTITLE5=Relaxin' with Lee
TTITLE6=Sad Song
TTITLE7=Blurry
EXTD=YEAR: 2007
EXTT0=
EXTT1=
EXTT2=
EXTT3=
EXTT4=
EXTT5=
EXTT6=
EXTT7=
PLAYORDER=
